<?xml version="1.0" encoding="iso-8859-1"?>
<!-- Generator: Adobe Illustrator 19.0.0, SVG Export Plug-In . SVG Version: 6.00 Build 0)  -->
<svg version="1.1" id="Capa_1" xmlns="http://www.w3.org/2000/svg" xmlns:xlink="http://www.w3.org/1999/xlink" x="0px" y="0px"
	 viewBox="0 0 512 512" style="enable-background:new 0 0 512 512;" xml:space="preserve">
<circle style="fill:#FF9800;" cx="256" cy="256" r="256"/>
<path style="fill:#D97616;" d="M409.374,103.541l-0.008,0.008C370.252,64.077,316.008,39.603,256,39.603l0,0
	c-119.255,0-215.93,96.675-215.93,215.93c0,59.979,24.461,114.239,63.944,153.368l-0.008,0.008l97.189,97.189
	C218.853,509.952,237.186,512,256,512c141.385,0,256-114.615,256-256c0-19.235-2.137-37.969-6.158-55.991L409.374,103.541z"/>
<circle style="fill:#DFF3F6;" cx="256" cy="255.536" r="215.927"/>
<g>
	<path style="fill:#B0E3E5;" d="M256,39.603v431.861c119.255,0,215.93-96.675,215.93-215.93S375.255,39.603,256,39.603z"/>
	<circle style="fill:#B0E3E5;" cx="256" cy="255.536" r="160.917"/>
</g>
<path style="fill:#96D6D9;" d="M416.916,255.533c0-88.871-72.045-160.916-160.916-160.916v321.832
	C344.871,416.45,416.916,344.406,416.916,255.533z"/>
<circle style="fill:#3EC380;" cx="256" cy="132.445" r="52.238"/>
<path style="fill:#00A95B;" d="M256,80.205v104.476c28.85,0,52.238-23.388,52.238-52.238S284.85,80.205,256,80.205z"/>
<circle style="fill:#FFF7CF;" cx="256" cy="132.445" r="37.402"/>
<path style="fill:#FEEE9A;" d="M293.398,132.443c0-20.654-16.744-37.398-37.398-37.398v74.796
	C276.654,169.841,293.398,153.097,293.398,132.443z"/>
<path style="fill:#FFFFFF;" d="M260.611,155.991c0,2.547-2.064,4.611-4.611,4.611c-2.547,0-4.611-2.064-4.611-4.611
	s2.064-13.347,4.611-13.347C258.547,142.643,260.611,153.444,260.611,155.991z"/>
<path style="fill:#FFF7CF;" d="M260.611,155.991c0-2.547-2.064-13.347-4.611-13.347v17.958
	C258.547,160.602,260.611,158.538,260.611,155.991z"/>
<path style="fill:#FFFFFF;" d="M239.79,150.691c-1.801,1.801-4.72,1.801-6.521,0s-1.801-4.72,0-6.521s10.898-7.978,12.699-6.178
	S241.591,148.89,239.79,150.691z"/>
<path style="fill:#FFF7CF;" d="M272.21,150.691c1.801,1.801,4.72,1.801,6.521,0s1.801-4.72,0-6.521s-10.898-7.978-12.699-6.178
	S270.409,148.89,272.21,150.691z"/>
<path style="fill:#FFFFFF;" d="M260.611,108.895c0-2.547-2.064-4.611-4.611-4.611c-2.547,0-4.611,2.064-4.611,4.611
	s2.064,13.347,4.611,13.347C258.547,122.242,260.611,111.441,260.611,108.895z"/>
<path style="fill:#FFF7CF;" d="M260.611,108.895c0,2.547-2.064,13.347-4.611,13.347v-17.958
	C258.547,104.284,260.611,106.348,260.611,108.895z"/>
<path style="fill:#FFFFFF;" d="M239.79,114.194c-1.801-1.801-4.72-1.801-6.521,0c-1.801,1.801-1.801,4.72,0,6.521
	s10.898,7.978,12.699,6.178C247.77,125.093,241.591,115.994,239.79,114.194z"/>
<path style="fill:#FFF7CF;" d="M272.21,114.194c1.801-1.801,4.72-1.801,6.521,0c1.801,1.801,1.801,4.72,0,6.521
	s-10.898,7.978-12.699,6.178C264.23,125.093,270.409,115.994,272.21,114.194z"/>
<path style="fill:#FFFFFF;" d="M365.675,268.153c0-38.944-49.059-70.514-109.577-70.514c-18.235,0-155.29,0-155.29,117.5
	c0,60.518,46.292,109.578,103.395,109.578c38.21,0,71.573-21.967,89.47-54.634c12.197-22.263,28.723-42.204,48.416-58.224
	C356.857,299.845,365.675,284.662,365.675,268.153z"/>
<circle style="fill:#FFE150;" cx="196.525" cy="323.054" r="46.745"/>
<path style="fill:#FF7751;" d="M273.629,211.786c0.037,0.037,0.072,0.077,0.108,0.114c29.907,29.801,78.31,29.715,108.111-0.192
	c29.801-29.907,29.715-78.309-0.191-108.111c-0.037-0.037-0.077-0.071-0.114-0.108L273.629,211.786z"/>
<path style="fill:#FFBBAB;" d="M289.918,195.439c0.037,0.037,0.072,0.077,0.108,0.114c20.878,20.805,54.669,20.744,75.474-0.134
	s20.744-54.669-0.134-75.474c-0.037-0.037-0.077-0.071-0.114-0.108L289.918,195.439z"/>
<path style="fill:#FF5F3B;" d="M327.585,157.638l54.262,54.069c29.801-29.907,29.715-78.309-0.191-108.111
	c-0.037-0.037-0.077-0.071-0.114-0.108L327.585,157.638z"/>
<path style="fill:#FF9376;" d="M327.585,157.638l37.915,37.78c20.805-20.878,20.744-54.669-0.134-75.474
	c-0.037-0.037-0.077-0.071-0.114-0.108L327.585,157.638z"/>
<path style="fill:#FFF7CF;" d="M354.699,174.983c2.68,2.671,2.688,7.009,0.017,9.689c-2.671,2.68-7.009,2.688-9.689,0.017
	s-11.884-16.171-9.213-18.852C338.485,163.158,352.019,172.312,354.699,174.983z"/>
<path style="fill:#FEEE9A;" d="M354.699,174.983c-2.68-2.671-16.214-11.825-18.885-9.145l18.902,18.835
	C357.387,181.992,357.38,177.654,354.699,174.983z"/>
<path style="fill:#FFF7CF;" d="M327.285,191.34c0.007,3.784-3.055,6.857-6.839,6.864c-3.784,0.007-6.857-3.055-6.864-6.839
	c-0.007-3.784,3.033-19.838,6.816-19.845C324.182,171.512,327.278,187.555,327.285,191.34z"/>
<path style="fill:#FEEE9A;" d="M361.286,157.217c3.784-0.007,6.845-3.08,6.839-6.864c-0.007-3.784-3.08-6.845-6.864-6.839
	c-3.784,0.007-19.827,3.102-19.821,6.887C341.448,154.186,357.502,157.224,361.286,157.217z"/>
<path style="fill:#FF7751;" d="M280.727,293.34c0,0.052-0.004,0.105-0.004,0.157c0.075,42.22,34.361,76.385,76.581,76.309
	c42.22-0.075,76.385-34.361,76.31-76.581c0-0.052-0.004-0.104-0.004-0.157L280.727,293.34z"/>
<path style="fill:#FFBBAB;" d="M303.805,293.298c0,0.052-0.004,0.105-0.004,0.157c0.052,29.474,23.988,53.326,53.463,53.273
	c29.474-0.052,53.326-23.988,53.273-53.463c0-0.052-0.004-0.104-0.004-0.157L303.805,293.298z"/>
<path style="fill:#FF5F3B;" d="M357.169,293.204l0.136,76.602c42.22-0.075,76.385-34.361,76.31-76.581
	c0-0.052-0.004-0.104-0.004-0.157L357.169,293.204z"/>
<path style="fill:#FF9376;" d="M357.169,293.204l0.095,53.525c29.474-0.052,53.326-23.988,53.273-53.463
	c0-0.052-0.004-0.104-0.004-0.157L357.169,293.204z"/>
<path style="fill:#FFF7CF;" d="M364.076,324.641c0.007,3.784-3.055,6.857-6.839,6.864c-3.784,0.007-6.857-3.055-6.864-6.839
	c-0.007-3.784,3.033-19.838,6.816-19.845C360.974,304.814,364.069,320.858,364.076,324.641z"/>
<path style="fill:#FEEE9A;" d="M364.076,324.641c-0.007-3.784-3.102-19.827-6.887-19.82l0.047,26.683
	C361.021,331.498,364.083,328.425,364.076,324.641z"/>
<path style="fill:#FFF7CF;" d="M333.127,316.822c-2.671,2.68-7.009,2.688-9.689,0.017s-2.688-7.009-0.017-9.689
	c2.671-2.68,16.171-11.884,18.852-9.213S335.797,314.141,333.127,316.822z"/>
<path style="fill:#FEEE9A;" d="M381.296,316.737c2.68,2.671,7.019,2.663,9.689-0.017c2.671-2.68,2.663-7.019-0.017-9.689
	c-2.68-2.671-16.214-11.826-18.885-9.145C369.412,300.565,378.616,314.066,381.296,316.737z"/>
<ellipse transform="matrix(0.3466 -0.938 0.938 0.3466 -70.8141 257.9878)" style="fill:#3C3C40;" cx="149.776" cy="179.824" rx="33.973" ry="26.87"/>
<g>
	<path style="fill:#282A2C;" d="M161.556,147.954l-23.549,63.736c13.92,5.143,30.476-4.956,36.979-22.555
		C181.489,171.534,175.476,153.097,161.556,147.954z"/>
	
		<ellipse transform="matrix(0.3466 -0.938 0.938 0.3466 -49.5261 252.4505)" style="fill:#282A2C;" cx="156.445" cy="161.775" rx="9.36" ry="12.347"/>
</g>
<path style="fill:#171719;" d="M168.033,166.051c1.792-4.849-1.941-10.696-8.338-13.059l-6.488,17.559
	C159.604,172.915,166.242,170.9,168.033,166.051z"/>
<ellipse transform="matrix(-0.1103 -0.9939 0.9939 -0.1103 -78.2144 352.2297)" style="fill:#C7E058;" cx="118.544" cy="211.122" rx="29.557" ry="23.373"/>
<path style="fill:#ABD634;" d="M115.288,181.74l6.521,58.752c12.832-1.424,21.774-15.731,19.973-31.955
	C139.982,192.313,128.12,180.316,115.288,181.74z"/>
<ellipse transform="matrix(-0.1103 -0.9939 0.9939 -0.1103 -63.7232 331.9208)" style="fill:#7DCA3F;" cx="116.7" cy="194.482" rx="8.144" ry="10.742"/>
<path style="fill:#65B042;" d="M127.378,193.292c-0.496-4.47-5.678-7.563-11.574-6.908l1.797,16.186
	C123.496,201.915,127.874,197.762,127.378,193.292z"/>
<path style="fill:#FFCF00;" d="M196.529,276.311v93.495c25.818,0,46.748-20.93,46.748-46.748
	C243.278,297.24,222.347,276.311,196.529,276.311z"/>
<g>
</g>
<g>
</g>
<g>
</g>
<g>
</g>
<g>
</g>
<g>
</g>
<g>
</g>
<g>
</g>
<g>
</g>
<g>
</g>
<g>
</g>
<g>
</g>
<g>
</g>
<g>
</g>
<g>
</g>
</svg>
