<?xml version="1.0"?>
<svg xmlns="http://www.w3.org/2000/svg" xmlns:xlink="http://www.w3.org/1999/xlink" version="1.1" id="Capa_1" x="0px" y="0px" viewBox="0 0 510.157 510.157" style="enable-background:new 0 0 510.157 510.157;" xml:space="preserve" width="512px" height="512px" class=""><g><rect x="51.389" y="253.832" style="fill:#2AB212" width="123.733" height="26.667" data-original="#FFD15C" class="active-path" data-old_color="#FFD15C"/><g>
	<path style="fill:#2AB212" d="M39.655,302.898c-7.467,0-13.867-7.467-12.8-14.933l0,0c12.8-89.6-25.6-177.067-25.6-178.133l0,0   c-3.2-6.4,0-13.867,6.4-17.067l0,0c6.4-3.2,13.867,0,17.067,6.4l0,0c2.133,3.2,37.333,85.333,29.867,177.067h122.667   c7.467,0,12.8,6.4,12.8,12.8l0,0c0,7.467-6.4,12.8-12.8,12.8L39.655,302.898z" data-original="#E8EAEA" class="" data-old_color="#E8EAEA"/>
	<path style="fill:#2AB212" d="M35.389,418.098L35.389,418.098c-7.467-2.133-10.667-9.6-8.533-16l35.2-115.2   c2.133-7.467,9.6-10.667,16-8.533l0,0c7.467,2.133,10.667,9.6,8.533,16l-35.2,114.133   C49.255,415.965,42.855,420.232,35.389,418.098z" data-original="#E8EAEA" class="" data-old_color="#E8EAEA"/>
	<path style="fill:#2AB212" d="M164.455,408.498l-35.2-115.2c-2.133-6.4,2.133-13.867,8.533-16l0,0   c7.467-2.133,13.867,2.133,16,8.533l35.2,115.2c2.133,7.467-2.133,13.867-8.533,16l0,0   C174.055,420.232,166.589,415.965,164.455,408.498z" data-original="#E8EAEA" class="" data-old_color="#E8EAEA"/>
	<rect x="46.055" y="342.365" style="fill:#2AB212" width="124.8" height="22.4" data-original="#E8EAEA" class="" data-old_color="#E8EAEA"/>
</g><g>
	<rect x="243.389" y="206.898" style="fill:#2AB212" width="32" height="211.2" data-original="#40596B" class="" data-old_color="#40596B"/>
	<rect x="435.389" y="206.898" style="fill:#2AB212" width="32" height="211.2" data-original="#40596B" class="" data-old_color="#40596B"/>
</g><path style="fill:#2AB212" d="M494.055,188.765H216.722c-9.6,0-17.067,7.467-17.067,17.067s7.467,17.067,17.067,17.067h276.267  c9.6,0,17.067-7.467,17.067-17.067C511.122,197.298,503.655,188.765,494.055,188.765z" data-original="#E8EAEA" class="" data-old_color="#E8EAEA"/><polygon style="fill:#2AB212" points="327.655,290.098 257.255,188.765 471.655,188.765 " data-original="#4CDBC4" class="" data-old_color="#4CDBC4"/><polygon style="fill:#2AB212" points="443.922,188.765 425.789,188.765 334.055,253.832 288.189,188.765 275.389,188.765   331.922,268.765 " data-original="#F2F2F2" class="" data-old_color="#F2F2F2"/></g> </svg>
